<svg xmlns="http://www.w3.org/2000/svg" data-name="Layer 1" viewBox="0 0 95 118.75" x="0px" y="0px"><path d="M65.375,44.74,94,68.56v8.592a3.892,3.892,0,0,1-3.887,3.887H22.523ZM14.539,32.127,1,43.393V77.152a3.892,3.892,0,0,0,3.887,3.887h10.82L44.228,56.832ZM94,17.848v44.9L66.791,40.107a2.231,2.231,0,0,0-2.872.013L47.686,53.9,15.968,27.5a2.237,2.237,0,0,0-2.858,0L1,37.582V17.848a3.892,3.892,0,0,1,3.887-3.887H90.113A3.892,3.892,0,0,1,94,17.848ZM42.476,24.36a2.236,2.236,0,0,0-2.234-2.234H28.44a2.234,2.234,0,0,0,0,4.467h11.8A2.236,2.236,0,0,0,42.476,24.36Zm19.6,9.558a2.236,2.236,0,0,0-2.234-2.234h-11.8a2.234,2.234,0,1,0,0,4.468h11.8A2.236,2.236,0,0,0,62.078,33.918Zm20.974-9.449a2.236,2.236,0,0,0-2.234-2.234h-11.8a2.234,2.234,0,0,0,0,4.467h11.8A2.236,2.236,0,0,0,83.052,24.469Z"/><text x="0" y="110" fill="#000000" font-size="5px" font-weight="bold" font-family="'Helvetica Neue', Helvetica, Arial-Unicode, Arial, Sans-serif">Created by Kholifah</text><text x="0" y="115" fill="#000000" font-size="5px" font-weight="bold" font-family="'Helvetica Neue', Helvetica, Arial-Unicode, Arial, Sans-serif">from the Noun Project</text></svg>