<svg data-v-423bf9ae="" xmlns="http://www.w3.org/2000/svg" viewBox="0 0 604 90" class="iconLeft"><!----><!----><!----><g data-v-423bf9ae="" id="7fe6eb6f-a1d1-4aaa-b88b-cff99945c81a" fill="#FFFFFF" transform="matrix(5.714285714285714,0,0,5.714285714285714,102.5142835208348,-17.51428461074829)"><path d="M1.31 16.19L1.31 5.69L9.20 5.69L9.20 5.69Q10.18 5.69 10.85 5.77L10.85 5.77L10.85 5.77Q11.53 5.86 11.96 6.03L11.96 6.03L11.96 6.03Q12.40 6.20 12.64 6.45L12.64 6.45L12.64 6.45Q12.87 6.71 12.98 7.05L12.98 7.05L12.98 7.05Q13.09 7.39 13.11 7.81L13.11 7.81L13.11 7.81Q13.13 8.24 13.13 8.75L13.13 8.75L13.13 8.75Q13.13 9.28 13.10 9.73L13.10 9.73L13.10 9.73Q13.08 10.19 12.94 10.55L12.94 10.55L12.94 10.55Q12.81 10.92 12.52 11.19L12.52 11.19L12.52 11.19Q12.23 11.47 11.69 11.66L11.69 11.66L11.69 11.66Q11.16 11.84 10.33 11.94L10.33 11.94L10.33 11.94Q9.51 12.03 8.31 12.03L8.31 12.03L2.63 12.03L2.63 16.19L1.31 16.19ZM2.63 6.78L2.63 10.94L8.31 10.94L8.31 10.94Q9.18 10.94 9.78 10.91L9.78 10.91L9.78 10.91Q10.38 10.88 10.77 10.79L10.77 10.79L10.77 10.79Q11.16 10.71 11.37 10.56L11.37 10.56L11.37 10.56Q11.58 10.41 11.68 10.17L11.68 10.17L11.68 10.17Q11.78 9.92 11.80 9.57L11.80 9.57L11.80 9.57Q11.81 9.23 11.81 8.75L11.81 8.75L11.81 8.75Q11.81 8.31 11.80 7.98L11.80 7.98L11.80 7.98Q11.78 7.66 11.68 7.44L11.68 7.44L11.68 7.44Q11.58 7.23 11.37 7.10L11.37 7.10L11.37 7.10Q11.16 6.97 10.77 6.89L10.77 6.89L10.77 6.89Q10.38 6.82 9.78 6.80L9.78 6.80L9.78 6.80Q9.18 6.78 8.31 6.78L8.31 6.78L2.63 6.78ZM26.47 16.19L25.16 13.78L16.84 13.78L15.53 16.19L14 16.19L20.13 5.69L21.88 5.69L28 16.19L26.47 16.19ZM17.50 12.69L24.50 12.69L21 6.56L17.50 12.69ZM29.75 16.19L29.75 5.69L31.06 5.69L31.06 16.19L29.75 16.19ZM35 6.78L35 16.19L33.69 16.19L33.69 5.69L35.99 5.69L45.62 14.88L45.62 5.69L46.93 5.69L46.93 16.19L45.18 16.19L35 6.78ZM49.12 5.69L60.93 5.69L60.93 6.78L55.68 6.78L55.68 16.19L54.37 16.19L54.37 6.78L49.12 6.78L49.12 5.69ZM73.62 16.19L63.12 16.19L63.12 5.69L73.62 5.69L73.62 6.78L64.43 6.78L64.43 10.28L73.18 10.28L73.18 11.38L64.43 11.38L64.43 15.09L73.62 15.09L73.62 16.19ZM87.40 14.22L87.40 16.19L86.08 16.19L86.08 14.22L86.08 14.22Q86.08 13.74 86.07 13.40L86.07 13.40L86.07 13.40Q86.05 13.05 85.95 12.80L85.95 12.80L85.95 12.80Q85.85 12.56 85.64 12.41L85.64 12.41L85.64 12.41Q85.43 12.26 85.04 12.17L85.04 12.17L85.04 12.17Q84.65 12.09 84.05 12.06L84.05 12.06L84.05 12.06Q83.45 12.03 82.58 12.03L82.58 12.03L76.68 12.03L76.68 16.19L75.37 16.19L75.37 5.69L82.80 5.69L82.80 5.69Q84 5.69 84.82 5.77L84.82 5.77L84.82 5.77Q85.65 5.86 86.18 6.03L86.18 6.03L86.18 6.03Q86.72 6.20 87.01 6.45L87.01 6.45L87.01 6.45Q87.30 6.71 87.44 7.05L87.44 7.05L87.44 7.05Q87.57 7.39 87.59 7.81L87.59 7.81L87.59 7.81Q87.62 8.24 87.62 8.75L87.62 8.75L87.62 8.75Q87.62 9.41 87.52 9.90L87.52 9.90L87.52 9.90Q87.43 10.40 87.21 10.75L87.21 10.75L87.21 10.75Q86.99 11.09 86.63 11.30L86.63 11.30L86.63 11.30Q86.27 11.51 85.72 11.59L85.72 11.59L85.72 11.59Q86.27 11.68 86.60 11.88L86.60 11.88L86.60 11.88Q86.93 12.09 87.10 12.41L87.10 12.41L87.10 12.41Q87.28 12.74 87.34 13.19L87.34 13.19L87.34 13.19Q87.40 13.64 87.40 14.22L87.40 14.22ZM76.68 6.78L76.68 10.94L82.80 10.94L82.80 10.94Q83.67 10.94 84.27 10.91L84.27 10.91L84.27 10.91Q84.87 10.88 85.26 10.79L85.26 10.79L85.26 10.79Q85.65 10.71 85.86 10.56L85.86 10.56L85.86 10.56Q86.07 10.41 86.17 10.17L86.17 10.17L86.17 10.17Q86.27 9.92 86.29 9.57L86.29 9.57L86.29 9.57Q86.30 9.23 86.30 8.75L86.30 8.75L86.30 8.75Q86.30 8.31 86.29 7.98L86.29 7.98L86.29 7.98Q86.27 7.66 86.17 7.44L86.17 7.44L86.17 7.44Q86.07 7.23 85.86 7.10L85.86 7.10L85.86 7.10Q85.65 6.97 85.26 6.89L85.26 6.89L85.26 6.89Q84.87 6.82 84.27 6.80L84.27 6.80L84.27 6.80Q83.67 6.78 82.80 6.78L82.80 6.78L76.68 6.78Z"></path></g><!----><g data-v-423bf9ae="" id="3e33aa22-77c8-4fc6-9290-b20eefa0aabb" transform="matrix(2.8125,0,0,2.8125,0,0)" stroke="none" fill="#E8185E"><path d="M4.029 14.362L14.362 4.028l.707.707L4.736 15.07zM17.135 27.47L27.47 17.135l.707.707-10.333 10.333zM4.029 17.841l.707-.707 10.333 10.334-.707.707zM17.135 4.735l.708-.707L28.176 14.36l-.707.707z"></path><g><path d="M16 1.414l1.683 1.683L16 4.779l-1.683-1.683L16 1.414M16 0l-3.097 3.097L16 6.194l3.097-3.097L16 0zM16 27.221l1.683 1.683L16 30.586l-1.683-1.683L16 27.221m0-1.415l-3.097 3.097L16 32l3.097-3.097L16 25.806zM3.097 14.317L4.779 16l-1.683 1.683L1.414 16l1.683-1.683m0-1.414L0 16l3.097 3.097L6.194 16l-3.097-3.097zM28.903 14.317L30.586 16l-1.683 1.683L27.221 16l1.682-1.683m0-1.414L25.806 16l3.097 3.097L32 16l-3.097-3.097z"></path></g></g><!----></svg>